<svg width="1920" height="1080" viewBox="0 0 1920 1080" fill="none" xmlns="http://www.w3.org/2000/svg">
  <defs>
    <linearGradient id="bg" x1="220" y1="70" x2="1720" y2="1030" gradientUnits="userSpaceOnUse">
      <stop stop-color="#F7E9D0"/>
      <stop offset="0.46" stop-color="#F2D4A3"/>
      <stop offset="1" stop-color="#E6A75A"/>
    </linearGradient>
    <radialGradient id="glow" cx="0" cy="0" r="1" gradientUnits="userSpaceOnUse" gradientTransform="translate(318 222) rotate(34.9) scale(511.811 437.393)">
      <stop stop-color="#FFF2D6" stop-opacity="0.95"/>
      <stop offset="1" stop-color="#FFF2D6" stop-opacity="0"/>
    </radialGradient>
    <radialGradient id="ember" cx="0" cy="0" r="1" gradientUnits="userSpaceOnUse" gradientTransform="translate(1648 874) rotate(127.208) scale(508.377 591.742)">
      <stop stop-color="#B63D12" stop-opacity="0.24"/>
      <stop offset="1" stop-color="#B63D12" stop-opacity="0"/>
    </radialGradient>
    <linearGradient id="plate" x1="960" y1="84" x2="960" y2="996" gradientUnits="userSpaceOnUse">
      <stop stop-color="#2E211B"/>
      <stop offset="1" stop-color="#160F0D"/>
    </linearGradient>
    <linearGradient id="sauce" x1="1337" y1="180" x2="1589" y2="386" gradientUnits="userSpaceOnUse">
      <stop stop-color="#7B1E12"/>
      <stop offset="1" stop-color="#41120C"/>
    </linearGradient>
    <filter id="shadow" x="240" y="93" width="1440" height="894" filterUnits="userSpaceOnUse" color-interpolation-filters="sRGB">
      <feFlood flood-opacity="0" result="BackgroundImageFix"/>
      <feColorMatrix in="SourceAlpha" type="matrix" values="0 0 0 0 0 0 0 0 0 0 0 0 0 0 0 0 0 0 127 0" result="hardAlpha"/>
      <feOffset dy="24"/>
      <feGaussianBlur stdDeviation="34"/>
      <feColorMatrix type="matrix" values="0 0 0 0 0.133333 0 0 0 0 0.0705882 0 0 0 0 0.0470588 0 0 0 0.3 0"/>
      <feBlend mode="normal" in2="BackgroundImageFix" result="effect1_dropShadow_0_1"/>
      <feBlend mode="normal" in="SourceGraphic" in2="effect1_dropShadow_0_1" result="shape"/>
    </filter>
    <pattern id="grain" x="0" y="0" width="120" height="120" patternUnits="userSpaceOnUse">
      <circle cx="14" cy="26" r="1.8" fill="#8B4D22" fill-opacity="0.08"/>
      <circle cx="82" cy="18" r="1.2" fill="#8B4D22" fill-opacity="0.06"/>
      <circle cx="37" cy="77" r="1.4" fill="#8B4D22" fill-opacity="0.06"/>
      <circle cx="99" cy="63" r="1.8" fill="#8B4D22" fill-opacity="0.08"/>
      <circle cx="58" cy="111" r="1.1" fill="#8B4D22" fill-opacity="0.07"/>
      <circle cx="8" cy="102" r="1.5" fill="#8B4D22" fill-opacity="0.05"/>
    </pattern>
  </defs>

  <rect width="1920" height="1080" fill="url(#bg)"/>
  <rect width="1920" height="1080" fill="url(#grain)"/>
  <rect width="1920" height="1080" fill="url(#glow)"/>
  <rect width="1920" height="1080" fill="url(#ember)"/>

  <g opacity="0.22">
    <path d="M-72 130C61 90 187 83 305 112C423 141 560 153 680 128" stroke="#FFF3DE" stroke-width="20" stroke-linecap="round"/>
    <path d="M1260 180C1368 119 1488 112 1626 148C1714 171 1802 178 1910 141" stroke="#6B2117" stroke-width="28" stroke-linecap="round"/>
    <path d="M1330 232C1431 205 1517 213 1597 251" stroke="#BC5B26" stroke-width="12" stroke-linecap="round"/>
  </g>

  <g filter="url(#shadow)">
    <rect x="308" y="169" width="1304" height="750" rx="42" fill="url(#plate)"/>
    <rect x="336" y="197" width="1248" height="694" rx="28" fill="#201613"/>
    <rect x="356" y="217" width="1208" height="654" rx="24" fill="#191110"/>
  </g>

  <rect x="404" y="262" width="1112" height="560" rx="32" fill="#F8E4BF"/>
  <rect x="428" y="286" width="1064" height="512" rx="24" fill="#FAEBD0"/>
  <rect x="428" y="286" width="1064" height="512" rx="24" fill="url(#grain)"/>

  <g opacity="0.95">
    <circle cx="512" cy="354" r="72" fill="#B7301B"/>
    <circle cx="512" cy="354" r="54" fill="#E8C07A"/>
    <circle cx="512" cy="354" r="24" fill="#B7301B"/>
    <path d="M476 353C490 335 535 335 548 353C560 371 537 394 512 394C487 394 463 370 476 353Z" fill="#B7301B"/>
  </g>

  <g opacity="0.18">
    <path d="M490 675C575 612 704 597 797 656" stroke="#9C5324" stroke-width="8" stroke-linecap="round"/>
    <path d="M492 694C581 630 707 619 798 678" stroke="#9C5324" stroke-width="8" stroke-linecap="round"/>
    <path d="M490 713C577 653 702 640 798 699" stroke="#9C5324" stroke-width="8" stroke-linecap="round"/>
    <path d="M489 732C583 672 705 663 796 721" stroke="#9C5324" stroke-width="8" stroke-linecap="round"/>
  </g>

  <g opacity="0.2">
    <path d="M1197 347C1273 307 1344 321 1398 383" stroke="#AB5E23" stroke-width="10" stroke-linecap="round"/>
    <path d="M1170 391C1263 337 1353 353 1432 427" stroke="#AB5E23" stroke-width="10" stroke-linecap="round"/>
    <path d="M1148 437C1245 377 1360 393 1454 476" stroke="#AB5E23" stroke-width="10" stroke-linecap="round"/>
  </g>

  <g opacity="0.85">
    <path d="M1287 221C1360 188 1444 208 1508 274" stroke="url(#sauce)" stroke-width="26" stroke-linecap="round"/>
    <path d="M1246 273C1352 226 1472 252 1558 350" stroke="url(#sauce)" stroke-width="18" stroke-linecap="round"/>
  </g>

  <rect x="507" y="430" width="610" height="168" rx="24" fill="#FAF1E2" fill-opacity="0.88"/>
  <rect x="507" y="620" width="906" height="92" rx="18" fill="#FAF1E2" fill-opacity="0.72"/>

  <g opacity="0.8">
    <path d="M431 804C476 770 535 758 588 772" stroke="#C86A27" stroke-width="10" stroke-linecap="round"/>
    <path d="M1328 761C1381 731 1450 732 1498 766" stroke="#7B2817" stroke-width="10" stroke-linecap="round"/>
  </g>

  <text x="561" y="495" fill="#231714" font-family="'Noto Serif JP', 'Yu Mincho', serif" font-size="84" font-weight="700" letter-spacing="4">YAKITEI</text>
  <text x="562" y="552" fill="#8B4420" font-family="'Noto Sans JP', 'Yu Gothic', sans-serif" font-size="34" font-weight="600" letter-spacing="8">TEPPAN YAKISOBA</text>
  <text x="562" y="679" fill="#6B5645" font-family="'Noto Sans JP', 'Yu Gothic', sans-serif" font-size="30" font-weight="500" letter-spacing="6">SAVORY SAUCE  HOT IRON PLATE  FESTIVAL STREET ENERGY</text>

  <g opacity="0.7">
    <rect x="1304" y="594" width="148" height="148" rx="20" fill="#B7301B"/>
    <text x="1331" y="647" fill="#F8E4BF" font-family="'Noto Sans JP', 'Yu Gothic', sans-serif" font-size="28" font-weight="700" letter-spacing="3">HOT</text>
    <text x="1330" y="690" fill="#F8E4BF" font-family="'Noto Sans JP', 'Yu Gothic', sans-serif" font-size="28" font-weight="700" letter-spacing="3">PLATE</text>
  </g>

  <rect x="312" y="173" width="1296" height="24" fill="#5F1B14" fill-opacity="0.46"/>
  <rect x="312" y="889" width="1296" height="24" fill="#5F1B14" fill-opacity="0.34"/>
</svg>
